# AST/ASF file generated using VICON BodyLanguage
# -----------------------------------------------
:version 1.10
:name VICON
:units
  mass 1.0
  length 0.45
  angle deg
:documentation
   .ast/.asf automatically generated from VICON data using
   VICON BodyBuilder and BodyLanguage model FoxedUp or BRILLIANT.MOD
:root
   order TX TY TZ RX RY RZ
   axis XYZ
   position 0 0 0  
   orientation 0 0 0 
:bonedata
  begin
     id 1 
     name lhipjoint
     direction 0.558404 -0.748506 0.357664 
     length 2.4234 
     axis 0 0 0  XYZ
  end
  begin
     id 2 
     name lfemur
     direction 0.34202 -0.939693 0  
     length 7.14567  
     axis 0 0 20  XYZ
    dof rx ry rz
    limits (-160.0 20.0)
           (-70.0 70.0)
           (-60.0 70.0)
  end
  begin
     id 3 
     name ltibia
     direction 0.34202 -0.939693 0   
     length 8.13956   
     axis 0 0 20   XYZ
    dof rx
    limits (-10.0 170.0)
  end
  begin
     id 4 
     name lfoot
     direction 0.0791314 -0.217412 0.972867   
     length 2.00134   
     axis -90 7.62852e-016 20   XYZ
    dof rx rz
    limits (-45.0 90.0)
           (-70.0 20.0)
  end
  begin
     id 5 
     name ltoes
     direction 1.53547e-011 -4.21922e-011 1   
     length 1.00735   
     axis -90 7.62852e-016 20   XYZ
    dof rx
    limits (-90.0 20.0)
  end
  begin
     id 6 
     name rhipjoint
     direction -0.496392 -0.78327 0.374276   
     length 2.31584  
     axis 0 0 0  XYZ 
  end
  begin
     id 7 
     name rfemur
     direction -0.34202 -0.939693 0   
     length 7.47417   
     axis 0 0 -20   XYZ
    dof rx ry rz
    limits (-160.0 20.0)
           (-70.0 70.0)
           (-70.0 60.0)
  end
  begin
     id 8 
     name rtibia
     direction -0.34202 -0.939693 0   
     length 7.69071   
     axis 0 0 -20   XYZ
    dof rx
    limits (-10.0 170.0)
 end
 begin
     id 9 
     name rfoot
     direction -0.103069 -0.28318 0.953512   
     length 2.16135  
     axis -90 -7.62852e-016 -20   XYZ
    dof rx rz
    limits (-45.0 90.0)
           (-20.0 70.0)
  end
  begin
     id 10 
     name rtoes
     direction -1.53581e-011 -4.21904e-011 1   
     length 1.07867   
     axis -90 -7.62852e-016 -20   XYZ
    dof rx
    limits (-90.0 20.0)
  end
  begin
     id 11 
     name lowerback
     direction -0.0258961 0.994776 -0.0987407   
     length 2.19412   
     axis 0 0 0   XYZ
    dof rx ry rz
    limits (-20.0 45.0)
           (-30.0 30.0)
           (-30.0 30.0)
  end
  begin
     id 12 
     name upperback
     direction 0.0402454 0.999185 0.00320666   
     length 2.18445   
     axis 0 0 0   XYZ
    dof rx ry rz
    limits (-20.0 45.0)
           (-30.0 30.0)
           (-30.0 30.0)
  end
  begin
     id 13 
     name thorax
     direction 0.0519376 0.997415 0.0496558   
     length 2.21487   
     axis 0 0 0   XYZ
    dof rx ry rz
    limits (-20.0 45.0)
           (-30.0 30.0)
           (-30.0 30.0)
  end
  begin
     id 14 
     name lowerneck
     direction -0.0921276 0.983211 0.157506   
     length 1.61201   
     axis 0 0 0   XYZ
    dof rx ry rz
    limits (-20.0 45.0)
           (-30.0 30.0)
           (-30.0 30.0)
  end
  begin
     id 15 
     name upperneck
     direction 0.0820814 0.98162 -0.172292   
     length 1.65275   
     axis 0 0 0   XYZ
    dof rx ry rz
    limits (-20.0 45.0)
           (-30.0 30.0)
           (-30.0 30.0)
  end
  begin
     id 16
     name head
     direction 0.0336554 0.996413 -0.0776455  
     length 1.66415  
     axis 0 0 0   XYZ
    dof rx ry rz
    limits (-20.0 45.0)
           (-30.0 30.0)
           (-30.0 30.0)
  end
  begin
     id 17 
     name lclavicle
     direction 0.94696 0.284418 -0.149576  
     length 3.41447  
     axis 0 0 0   XYZ
    dof ry rz
    limits (-20.0 10.0)
           (0.0 20.0)
  end
  begin
     id 18 
     name lhumerus
     direction 1 -0.000130264 -9.81312e-005   
     length 5.19964   
     axis 180 -30 -90   XYZ
    dof rx ry rz
    limits (-60.0 90.0)
           (-90.0 90.0)
           (-90.0 90.0)
  end
  begin
     id 19
     name lradius
     direction 1 -4.48961e-011 1.43854e-026   
     length 3.32189   
     axis 180 -30 -90   XYZ
    dof rx
    limits (-10.0 170.0)
  end
  begin
     id 20
     name lwrist
     direction 1 -4.48958e-011 3.1502e-026   
     length 1.66095   
     axis -1.97692e-014 90 90   XYZ
    dof ry
    limits (-180.0 0.0)
 end
  begin
     id 21 
     name lhand
     direction 1 -4.48927e-011 6.3004e-026   
     length 0.645616   
     axis -4.02019e-014 90 90   XYZ
    dof rx rz
    limits (-90.0 90.0)
           (-45.0 45.0)
  end
  begin
     id 22 
     name lfingers
     direction 1 -4.4904e-011 1.26008e-025   
     length 0.520512   
     axis -8.04039e-014 90 90   XYZ
    dof rx
    limits (0.0 90.0)
  end
  begin
     id 23
     name lthumb
     direction 0.707107 -6.34947e-011 0.707107   
     length 0.747354   
     axis -90 45 2.85299e-015   XYZ
    dof rx rz
    limits (-45.0 45.0)
           (-45.0 45.0)
  end
  begin
     id 24 
     name rclavicle
     direction -0.909391 0.383475 -0.161107   
     length 3.25176  
     axis 0 0 0   XYZ 
    dof ry rz
    limits (-10.0 20.0)
           (-20.0 0.0)
  end
  begin
     id 25 
     name rhumerus
     direction -1 -4.48965e-011 -1.81384e-027  
     length 5.6595   
     axis 180 30 90   XYZ
    dof rx ry rz
    limits (-90.0 60.0)
           (-90.0 90.0)
           (-90.0 90.0)
  end
  begin
     id 26 
     name rradius
     direction -1 -4.48996e-011 -8.09397e-027   
     length 3.37604   
     axis 180 30 90   XYZ
    dof rx
    limits (-10.0 170.0)
  end
  begin
     id 27 
     name rwrist
     direction -1 -4.48927e-011 -1.56669e-026   
     length 1.68802   
     axis 1.21142e-014 -90 -90   XYZ
    dof ry
    limits (-180.0 0.0)
  end
  begin
     id 28
     name rhand
     direction -1 -4.48912e-011 -3.13339e-026   
     length 0.824702   
     axis 1.99937e-014 -90 -90   XYZ
    dof rx rz
    limits (-90.0 90.0)
           (-45.0 45.0)
  end
  begin
     id 29
     name rfingers
     direction -1 -4.49011e-011 -6.26677e-026   
     length 0.664896   
     axis 3.99874e-014 -90 -90   XYZ
    dof rx
    limits (0.0 90.0)
  end
  begin
     id 30
     name rthumb
     direction -0.707107 -6.34931e-011 0.707107   
     length 0.954662   
     axis -90 -45 -2.85299e-015   XYZ
    dof rx rz
    limits (-45.0 45.0)
           (-45.0 45.0)
  end
:hierarchy
  begin
    root lhipjoint rhipjoint lowerback
    lhipjoint lfemur
    lfemur ltibia
    ltibia lfoot
    lfoot ltoes
    rhipjoint rfemur
    rfemur rtibia
    rtibia rfoot
    rfoot rtoes
    lowerback upperback
    upperback thorax
    thorax lowerneck lclavicle rclavicle
    lowerneck upperneck
    upperneck head
    lclavicle lhumerus
    lhumerus lradius
    lradius lwrist
    lwrist lhand lthumb
    lhand lfingers
    rclavicle rhumerus
    rhumerus rradius
    rradius rwrist
    rwrist rhand rthumb
    rhand rfingers
  end

#!OML:ASF F:\VICON\USERDATA\INSTALL\rory3\rory3.ASF
:FULLY-SPECIFIED
:DEGREES
197
root 7.58724 16.4449 8.58456 -1.13015 18.9087 -2.54776
lowerback 12.2181 -4.45658 -0.145992
upperback -2.02369 -5.21648 8.66187
thorax -8.21302 -2.28776 10.5432
lowerneck -8.57253 -7.84248 -13.3992
upperneck 19.2749 -10.7921 10.3682
head 8.71501 -5.16 4.55105
rclavicle 9.30312e-014 -7.4743e-014
rhumerus -43.3039 -25.1775 -51.9195
rradius 26.6994
rwrist -7.07933
rhand -8.87649 14.7187
rfingers 7.12502
rthumb 17.0653 -14.5517
lclavicle 9.30312e-014 -7.4743e-014
lhumerus 14.7216 -68.7945 89.0163
lradius 64.6914
lwrist 5.66932
lhand -9.83487 24.5687
lfingers 7.12502
lthumb 16.1427 53.9165
rfemur -37.4412 -4.18253 25.9908
rtibia 55.812
rfoot -14.5133 -11.827
rtoes 28.5069
lfemur -23.6907 17.4831 -19.318
ltibia 77.8387
lfoot -16.2753 -4.61972
ltoes -12.997
198
root 7.65885 16.5131 8.60877 -0.990965 19.3693 -2.49835
lowerback 12.2256 -4.38187 -0.0717264
upperback -1.9468 -5.11631 8.54453
thorax -8.16736 -2.2483 10.3412
lowerneck -8.79459 -7.96068 -13.3048
upperneck 19.0134 -10.9208 10.3668
head 8.67884 -5.20627 4.50767
rclavicle 7.89175e-014 -2.8625e-014
rhumerus -41.8265 -25.0914 -52.5308
rradius 27.2241
rwrist -6.25581
rhand -8.63484 15.0159
rfingers 7.12502
rthumb 17.2979 -14.2343
lclavicle 7.89175e-014 -2.8625e-014
lhumerus 13.1009 -66.9288 89.0551
lradius 63.9447
lwrist 5.45284
lhand -8.68973 24.795
lfingers 7.12502
lthumb 17.2451 54.0499
rfemur -37.0081 -4.53319 25.6206
rtibia 55.0186
rfoot -14.3503 -11.9147
rtoes 27.5523
lfemur -24.6192 16.3705 -18.6437
ltibia 77.4683
lfoot -15.3874 -2.01795
ltoes -12.0491
199
root 7.73605 16.5761 8.63761 -0.64225 19.454 -2.2714
lowerback 12.1572 -4.19813 -0.0316214
upperback -2.03243 -4.88217 8.28703
thorax -8.28657 -2.1353 9.9848
lowerneck -8.54476 -8.0035 -13.1896
upperneck 18.6057 -11.0191 10.4846
head 8.50792 -5.2434 4.52163
rclavicle 7.95139e-015 -1.74931e-014
rhumerus -40.8359 -24.3106 -53.3665
rradius 28.3837
rwrist -6.57223
rhand -8.667 15.176
rfingers 7.12502
rthumb 17.267 -14.0769
lclavicle 7.95139e-015 -1.74931e-014
lhumerus 10.1773 -64.8658 90.1872
lradius 63.105
lwrist 4.8996
lhand -7.66114 25.2053
lfingers 7.12502
lthumb 18.2349 54.3706
rfemur -36.7691 -4.56481 25.079
rtibia 54.2436
rfoot -14.3799 -11.8295
rtoes 29.5745
lfemur -25.2711 15.4491 -18.0998
ltibia 76.8746
lfoot -15.4569 -1.37243
ltoes -9.15437
200
root 7.79617 16.6513 8.71067 -0.919779 19.651 -2.22179
lowerback 12.2579 -4.04966 -0.230794
upperback -1.92136 -4.72927 8.13005
thorax -8.24414 -2.05907 9.89627
lowerneck -7.8946 -8.03311 -13.2182
upperneck 17.9267 -11.1202 10.7048
head 8.18996 -5.29874 4.60588
rclavicle 8.44835e-015 3.18055e-015
rhumerus -39.9671 -23.2222 -54.2288
rradius 29.9076
rwrist -7.72819
rhand -8.99456 15.0121
rfingers 7.12502
rthumb 16.9517 -14.2681
lclavicle 8.44835e-015 3.18055e-015
lhumerus 7.76179 -62.8564 90.8801
lradius 62.0793
lwrist 4.66165
lhand -7.27343 26.0229
lfingers 7.12502
lthumb 18.6078 55.1529
rfemur -35.5451 -4.28774 24.7474
rtibia 53.462
rfoot -14.8051 -12.2064
rtoes 31.5147
lfemur -24.5802 14.4537 -16.7879
ltibia 75.9126
lfoot -16.2534 -2.46858
ltoes -3.67637
201
root 7.85247 16.7118 8.77797 -1.29428 20.0101 -2.20331
lowerback 12.368 -3.95845 -0.444377
upperback -1.72365 -4.65723 8.00484
thorax -8.09544 -2.02753 9.85871
lowerneck -7.60906 -8.09402 -13.3494
upperneck 17.5243 -11.2426 10.9989
head 8.04627 -5.35241 4.71893
rclavicle 3.16068e-014 -5.88403e-014
rhumerus -38.9766 -22.515 -54.9061
rradius 31.3497
rwrist -8.68669
rhand -9.54979 14.9695
rfingers 7.12502
rthumb 16.4171 -14.3558
lclavicle 3.16068e-014 -5.88403e-014
lhumerus 6.31388 -60.743 90.7286
lradius 60.7781
lwrist 4.49335
lhand -6.59158 26.6115
lfingers 7.12502
lthumb 19.2636 55.6775
rfemur -34.2358 -4.18523 24.4619
rtibia 52.7456
rfoot -14.7293 -12.6402
rtoes 30.004
lfemur -23.9889 13.3309 -15.5333
ltibia 74.7882
lfoot -16.8076 -3.32199
ltoes -0.579362
202
root 7.9486 16.7525 8.7967 -1.28637 20.111 -1.93432
lowerback 12.4752 -3.80411 -0.254092
upperback -1.57109 -4.44446 7.73482
thorax -8.06044 -1.94269 9.40254
lowerneck -8.1302 -8.17663 -13.7806
upperneck 17.816 -11.3789 11.619
head 8.32071 -5.37411 4.96829
rclavicle -2.11706e-014 2.54444e-014
rhumerus -37.7046 -22.241 -55.4228
rradius 32.6327
rwrist -9.30607
rhand -10.042 15.2156
rfingers 7.12502
rthumb 15.9432 -14.1482
lclavicle -2.11706e-014 2.54444e-014
lhumerus 5.32202 -58.3452 90.2846
lradius 59.3571
lwrist 4.05035
lhand -5.72762 27.183
lfingers 7.12502
lthumb 20.0942 56.1638
rfemur -33.5606 -4.66169 23.806
rtibia 52.0845
rfoot -14.3748 -12.143
rtoes 28.849
lfemur -24.218 12.1697 -15.1572
ltibia 73.6321
lfoot -17.1189 -3.10697
ltoes -0.576303
203
root 8.0594 16.8028 8.80125 -0.947772 20.3225 -1.24924
lowerback 12.5643 -3.68855 -0.231874
upperback -1.55229 -4.3155 7.34066
thorax -8.14133 -1.88776 8.93031
lowerneck -8.63943 -8.29811 -14.0125
upperneck 18.1171 -11.533 11.8971
head 8.56893 -5.41808 5.06726
rclavicle -2.38542e-015 -6.52014e-014
rhumerus -36.5547 -21.6834 -55.959
rradius 34.2833
rwrist -10.6392
rhand -10.5047 15.6305
rfingers 7.12502
rthumb 15.4976 -13.7684
lclavicle -2.38542e-015 -6.52014e-014
lhumerus 4.4176 -55.7509 89.8724
lradius 57.7612
lwrist 3.38586
lhand -5.11814 28.0342
lfingers 7.12502
lthumb 20.6799 56.9525
rfemur -33.1294 -5.65298 22.669
rtibia 51.3892
rfoot -14.0447 -11.2398
rtoes 28.8431
lfemur -24.5901 10.7312 -15.4303
ltibia 72.3012
lfoot -17.3314 -2.50893
ltoes -0.877594
204
root 8.14857 16.8564 8.80886 -0.486758 20.6165 -0.847879
lowerback 12.7424 -3.64166 -0.180763
upperback -1.85723 -4.2471 7.04673
thorax -8.61185 -1.84043 8.60512
lowerneck -8.20433 -8.42427 -13.6166
upperneck 17.8223 -11.6889 11.3667
head 8.35435 -5.52654 4.81012
rclavicle -6.33129e-014 1.43125e-014
rhumerus -36.1265 -20.5813 -56.405
rradius 36.4733
rwrist -12.5713
rhand -11.5546 15.5067
rfingers 7.12502
rthumb 14.4861 -13.9676
lclavicle -6.33129e-014 1.43125e-014
lhumerus 2.75139 -52.9005 90.0696
lradius 55.985
lwrist 2.62768
lhand -4.49327 29.0652
lfingers 7.12502
lthumb 21.2802 57.917
rfemur -32.9298 -6.2231 21.9295
rtibia 50.683
rfoot -13.5583 -10.9742
rtoes 27.9501
lfemur -25.184 9.36962 -15.2453
ltibia 70.9039
lfoot -17.5023 -2.3223
ltoes -1.26605
205
root 8.18086 16.9084 8.87513 -0.899724 20.4807 -1.98372
lowerback 12.6773 -3.47765 0.206967
upperback -1.81952 -3.93901 7.36592
thorax -8.58356 -1.70054 8.67357
lowerneck -7.6254 -8.46572 -13.519
upperneck 17.3727 -11.7645 11.2385
head 8.09576 -5.58948 4.75829
rclavicle -5.36719e-015 -6.36111e-015
rhumerus -35.5639 -19.6725 -56.6842
rradius 38.605
rwrist -14.3072
rhand -12.9294 14.7651
rfingers 7.12502
rthumb 13.1612 -14.7995
lclavicle -5.36719e-015 -6.36111e-015
lhumerus 0.944196 -49.4134 90.4256
lradius 54.4007
lwrist 1.71684
lhand -3.445 30.7459
lfingers 7.12502
lthumb 22.2868 59.4807
rfemur -32.1081 -4.79467 23.0017
rtibia 49.8588
rfoot -13.5825 -12.269
rtoes 27.5695
lfemur -25.2324 8.97082 -12.7248
ltibia 69.3623
lfoot -17.6452 -3.23425
ltoes -2.14249
206
root 8.27974 16.9522 8.89316 -0.711912 19.8336 -1.94914
lowerback 12.6039 -3.15781 0.479785
upperback -1.78854 -3.4849 7.20839
thorax -8.59748 -1.49709 8.24473
lowerneck -7.47986 -8.42423 -13.8285
upperneck 17.2182 -11.7531 11.6881
head 8.06453 -5.57416 4.96776
rclavicle -6.85807e-015 1.90833e-014
rhumerus -34.65 -19.0622 -56.8935
rradius 40.4586
rwrist -15.8383
rhand -13.9198 14.4099
rfingers 7.12502
rthumb 12.2065 -15.2139
lclavicle -6.85807e-015 1.90833e-014
lhumerus -0.568545 -45.3037 90.5411
lradius 52.963
lwrist 0.268478
lhand -2.25623 33.0249
lfingers 7.12502
lthumb 23.4276 61.6188
rfemur -31.7691 -4.49173 22.7006
rtibia 49.0973
rfoot -13.2232 -11.9808
rtoes 26.6649
lfemur -25.3102 8.45048 -12.0898
ltibia 67.5486
lfoot -17.3073 -2.43455
ltoes -1.95884
